# xmcd CD database file
#
# Track frame offsets:
#	182
#	21497
#	41255
#	62362
#	77095
#	106607
#	132157
#	150027
#	166442
#	189992
#	213280
#	233705
#	260060
#	277435
#	293532
#	317090
#
# Disc length: 4622 seconds
#
# Revision: 3
# Processed by: cddbd v1.5.2PL0 Copyright (c) Steve Scherf et al.
# Submitted via: CDex 1.51
#
DISCID=d1120c10
DTITLE=Tom Waits - Used Songs 1973-1980
DYEAR=2001
DGENRE=Rock
TTITLE0=Heartattack And Vine
TTITLE1=Eggs And Sausage (In A Cadillac with Susan Michelson)
TTITLE2=A Sight For Sore Eyes
TTITLE3=Whistlin' Past The Graveyard
TTITLE4=Burma Shave
TTITLE5=Step Right Up
TTITLE6=Ol' 55
TTITLE7=I Never Talk To Strangers (with Bette Midler)
TTITLE8=Mr. Siegal
TTITLE9=Jersey Girl
TTITLE10=Christmas Card From A Hooker In Minneapolis
TTITLE11=Blue Valentines
TTITLE12=(Looking For) The Heart Of Saturday Night
TTITLE13=Muriel
TTITLE14=Wrong Side Of The Road
TTITLE15=Tom Traubert's Blues (Four Sheets To The Wind In Copenhagen)
EXTD=YEAR: 2001
EXTT0=
EXTT1=
EXTT2=
EXTT3=
EXTT4=
EXTT5=
EXTT6=
EXTT7=
EXTT8=
EXTT9=
EXTT10=
EXTT11=
EXTT12=
EXTT13=
EXTT14=
EXTT15=
PLAYORDER=
